<?xml version="1.0" encoding="utf-8"?>
<!-- Generator: Adobe Illustrator 24.3.0, SVG Export Plug-In . SVG Version: 6.00 Build 0)  -->
<svg version="1.1" id="Capa_1" xmlns="http://www.w3.org/2000/svg" xmlns:xlink="http://www.w3.org/1999/xlink" x="0px" y="0px"
	 viewBox="0 0 365.4 365.4" style="enable-background:new 0 0 365.4 365.4;" xml:space="preserve">
<style type="text/css">
	.st0{fill:#05F4B7;}
</style>
<g>
	<g>
		<path class="st0" d="M292.6,100.5c0,8.3-1,16.4-2.7,24.3c-19.8-39.6-60.3-66.7-107.2-66.7c-46.9,0-87.4,27.2-107.2,66.7
			c-1.7-7.8-2.7-15.9-2.7-24.3c0-27.4,9.9-61.3,26.1-90.5C62.2,53.3,38.2,118.2,38.2,167.3c0,64.2,41,118.8,97.9,138.4l46.5,47.1
			l46.5-47.1c57-19.6,97.9-74.1,97.9-138.4c0-49.1-24-114-60.7-157.3C282.8,39.2,292.6,73.1,292.6,100.5z"/>
	</g>
</g>
</svg>
